<?xml version="1.0" encoding="UTF-8" standalone="no"?>
<svg
   id="Layer_1"
   data-name="Layer 1"
   viewBox="0 0 24 24"
   width="512"
   height="512"
   version="1.1"
   sodipodi:docname="about.svg"
   inkscape:version="1.4 (e7c3feb100, 2024-10-09)"
   xmlns:inkscape="http://www.inkscape.org/namespaces/inkscape"
   xmlns:sodipodi="http://sodipodi.sourceforge.net/DTD/sodipodi-0.dtd"
   xmlns="http://www.w3.org/2000/svg"
   xmlns:svg="http://www.w3.org/2000/svg">
  <defs
     id="defs1" />
  <sodipodi:namedview
     id="namedview1"
     pagecolor="#ffffff"
     bordercolor="#999999"
     borderopacity="1"
     inkscape:showpageshadow="2"
     inkscape:pageopacity="0"
     inkscape:pagecheckerboard="0"
     inkscape:deskcolor="#d1d1d1"
     inkscape:zoom="1.6660156"
     inkscape:cx="256.30012"
     inkscape:cy="256"
     inkscape:window-width="1920"
     inkscape:window-height="1056"
     inkscape:window-x="0"
     inkscape:window-y="0"
     inkscape:window-maximized="1"
     inkscape:current-layer="Layer_1" />
  <path
     d="m5,18h17v1c0,2.761-2.239,5-5,5H5c-1.657,0-3-1.343-3-3s1.343-3,3-3Zm0-2h1V.1C3.672.575,2,2.624,2,5v12.025c.699-.527,1.525-.86,2.395-.964.199-.041.402-.061.605-.061ZM22,5v11h-14V0h9c2.761,0,5,2.239,5,5Zm-9.077.5c0,1.379,1.121,2.5,2.5,2.5s2.5-1.121,2.5-2.5-1.121-2.5-2.5-2.5-2.5,1.121-2.5,2.5Zm6.933,5.982c-.928-1.531-2.626-2.482-4.433-2.482s-3.505.951-4.433,2.482c-.286.472-.135,1.087.337,1.374.472.285,1.087.136,1.374-.337.559-.922,1.627-1.518,2.722-1.518s2.163.596,2.722,1.518c.188.311.519.482.856.482.177,0,.355-.046.518-.145.472-.287.623-.901.337-1.374Z"
     id="path1" />
  <path
     style="opacity:0.905;fill:#9333ea;stroke-width:1"
     d="M 43.368899,227.03869 43.541405,92.135991 45.149541,85.092677 C 49.985193,63.913506 58.875808,47.391326 73.444122,32.510466 87.613128,18.037479 105.61801,7.6834683 124.09848,3.3808251 l 3.75146,-0.8734205 V 171.65318 340.79895 l -14.8558,0.30424 c -15.43831,0.31616 -22.708167,1.17769 -33.611951,3.98323 -10.608835,2.72965 -21.807527,7.66169 -30.739381,13.53801 -2.772931,1.82432 -5.132755,3.31695 -5.244053,3.31695 -0.111299,0 -0.124734,-60.70621 -0.02986,-134.90269 z"
     id="path2"
     transform="scale(0.046875)" />
  <path
     style="opacity:0.905;fill:#9333ea;stroke-width:1"
     d="M 171.06682,170.46659 V 0 l 94.38687,0.01236243 c 52.5692,0.0068853 98.24287,0.26367808 103.09027,0.57960771 27.70533,1.80569756 51.36361,12.64426586 70.26275,32.18946986 14.41143,14.90408 23.27821,31.458317 28.05801,52.38419 l 1.59214,6.970361 0.1742,124.398589 0.1742,124.3986 H 319.93604 171.06682 Z m 239.16552,106.53196 c 5.4485,-0.89702 11.79481,-5.95626 14.5763,-11.62016 1.47659,-3.00674 1.65795,-4.03607 1.65795,-9.40973 0,-5.62895 -0.13195,-6.29366 -1.96702,-9.90903 -6.20416,-12.22318 -21.6553,-28.17934 -35.84775,-37.01944 -41.63173,-25.93129 -93.86128,-22.37435 -131.48603,8.95448 -9.48659,7.89916 -19.25842,19.5557 -23.5317,28.07033 -2.09809,4.18048 -2.2437,4.82407 -2.2437,9.91649 0,4.94147 0.18237,5.81632 1.96911,9.4457 3.85331,7.82718 10.45203,11.88113 19.33921,11.88113 8.65643,0 13.73906,-2.97715 19.33939,-11.32805 3.69445,-5.50894 11.32673,-13.50897 16.67468,-17.47809 17.69502,-13.13285 41.11995,-16.84022 61.82415,-9.78465 14.2793,4.86609 26.52725,14.2546 35.28901,27.05033 5.02028,7.33166 9.53596,10.58862 16.01838,11.55334 3.00962,0.44791 3.9204,0.41287 8.38802,-0.32265 z M 342.43376,169.25073 c 10.56899,-2.74818 21.56515,-9.80634 28.14597,-18.06618 4.45682,-5.59393 7.09061,-10.43423 9.43113,-17.33226 1.74392,-5.13973 1.96011,-6.56078 2.19161,-14.40563 0.18526,-6.27804 0.008,-9.87703 -0.63698,-12.91496 -4.34298,-20.463636 -19.91856,-36.454008 -40.43489,-41.511686 -6.33563,-1.561858 -18.87001,-1.397285 -25.35189,0.332866 -30.14579,8.046564 -47.22509,39.03327 -37.75559,68.49941 2.7006,8.40343 7.37291,15.84914 13.77235,21.94733 8.81512,8.40015 18.49866,12.99199 31.43079,14.90416 3.84325,0.56827 14.54842,-0.24158 19.2075,-1.45305 z"
     id="path3"
     transform="scale(0.046875)" />
  <path
     style="opacity:0.905;fill:#9333ea;stroke-width:1"
     d="m 100.83939,511.34971 c -27.907084,-2.36045 -51.477349,-23.93208 -56.75973,-51.94682 -1.492789,-7.91689 -0.943624,-20.833 1.196216,-28.13443 7.447506,-25.41192 28.254708,-43.29029 54.062928,-46.45301 3.828406,-0.46916 58.427176,-0.6625 187.423216,-0.6637 l 182.0211,-0.002 -0.004,15.15592 c -0.004,16.28093 -0.59371,22.19547 -3.26471,32.7325 -6.55882,25.87438 -23.95541,49.38212 -47.26402,63.86715 -14.63277,9.09345 -31.44781,14.32811 -49.8394,15.51538 -10.48028,0.67657 -259.51472,0.6102 -267.572,-0.0713 z"
     id="path4"
     transform="scale(0.046875)" />
</svg>
