<?xml version="1.0" encoding="UTF-8" standalone="no"?>
<svg
   id="Layer_1"
   height="512"
   viewBox="0 0 24 24"
   width="512"
   data-name="Layer 1"
   version="1.1"
   sodipodi:docname="education.svg"
   inkscape:version="1.4 (e7c3feb100, 2024-10-09)"
   xmlns:inkscape="http://www.inkscape.org/namespaces/inkscape"
   xmlns:sodipodi="http://sodipodi.sourceforge.net/DTD/sodipodi-0.dtd"
   xmlns="http://www.w3.org/2000/svg"
   xmlns:svg="http://www.w3.org/2000/svg">
  <defs
     id="defs1" />
  <sodipodi:namedview
     id="namedview1"
     pagecolor="#ffffff"
     bordercolor="#999999"
     borderopacity="1"
     inkscape:showpageshadow="2"
     inkscape:pageopacity="0"
     inkscape:pagecheckerboard="0"
     inkscape:deskcolor="#d1d1d1"
     inkscape:zoom="1.6660156"
     inkscape:cx="256.30012"
     inkscape:cy="256"
     inkscape:window-width="1920"
     inkscape:window-height="1056"
     inkscape:window-x="0"
     inkscape:window-y="0"
     inkscape:window-maximized="1"
     inkscape:current-layer="Layer_1" />
  <path
     d="m24 8.48v11.52a1 1 0 0 1 -2 0v-8.248l-7.4 3.536a5 5 0 0 1 -2.577.694 5.272 5.272 0 0 1 -2.7-.739l-7.38-3.513a3.691 3.691 0 0 1 -.084-6.455c.027-.016.056-.031.084-.045l7.457-3.558a5.226 5.226 0 0 1 5.282.045l7.375 3.513a3.767 3.767 0 0 1 1.943 3.25zm-11.978 9.5a7.26 7.26 0 0 1 -3.645-.972l-4.377-2.089v2.7a5.007 5.007 0 0 0 3.519 4.778 15.557 15.557 0 0 0 4.481.603 15.557 15.557 0 0 0 4.481-.607 5.007 5.007 0 0 0 3.519-4.778v-2.691l-4.459 2.13a6.983 6.983 0 0 1 -3.519.928z"
     id="path1" />
  <path
     style="opacity:0.905;fill:#9333ea;stroke-width:1"
     d="m 485.54728,446.99136 c -6.42875,-1.82052 -12.01576,-6.80627 -14.49326,-12.93355 l -1.37055,-3.38958 -0.30012,-90.11585 -0.30011,-90.11584 -77.43025,37.0026 c -42.58664,20.35143 -81.34678,38.95623 -86.13365,41.34398 -18.48044,9.21831 -36.54759,12.92726 -56.14822,11.5265 -16.56072,-1.18351 -30.03813,-4.99363 -45.53906,-12.87409 -5.31091,-2.7 -44.41262,-21.4533 -86.89269,-41.67401 C 61.832331,259.53032 38.271562,248.02216 34.707248,245.5956 17.433745,233.83593 5.1060202,214.7547 1.5286998,194.24082 0.18455727,186.53294 0.30222382,173.61661 1.7826986,166.35923 6.1489345,144.95567 17.941806,127.29129 35.693717,115.5644 38.680442,113.59138 69.987213,98.323598 117.94607,75.451322 160.53271,55.14114 199.77464,36.36194 205.15036,33.719767 c 15.27116,-7.50578 27.02123,-10.850757 42.8317,-12.193201 13.89928,-1.180168 28.96276,0.723545 43.13166,5.450952 6.68895,2.231748 9.8308,3.636181 22.50879,10.061627 3.30129,1.673156 40.16503,19.314351 81.91942,39.202656 41.75439,19.888306 77.00316,36.841569 78.3306,37.673909 15.70703,9.84885 27.70649,25.17582 33.62509,42.94949 4.52206,13.57983 4.20226,2.4955 4.20226,145.65297 v 128.15006 l -1.38279,3.42231 c -3.90531,9.66541 -15.27817,15.58871 -24.76981,12.90082 z"
     id="path2"
     transform="scale(0.046875)" />
  <path
     style="opacity:0.905;fill:#9333ea;stroke-width:1"
     d="m 234.39156,489.97512 c -28.48251,-1.49825 -66.32668,-8.79194 -83.33707,-16.0615 -7.45726,-3.18694 -11.44275,-5.32473 -17.80244,-9.54909 -21.70411,-14.41676 -37.983325,-37.41646 -44.37885,-62.69962 -2.757106,-10.89955 -3.039671,-15.53398 -3.039671,-49.85449 0,-17.86712 0.207236,-32.48568 0.460525,-32.48568 0.670907,0 90.084866,42.75149 96.042886,45.92098 25.84429,13.74839 55.01981,20.06907 84.27617,18.25786 21.2864,-1.31781 42.44633,-7.2123 60.50098,-16.85368 5.67841,-3.03234 98.12799,-47.32516 98.77878,-47.32516 0.18888,0 0.23705,15.86869 0.10705,35.26377 -0.22301,33.27241 -0.30897,35.60273 -1.52219,41.26612 -3.13896,14.65283 -9.91239,30.38129 -17.96504,41.7163 -5.21852,7.34564 -17.47747,19.59355 -24.76357,24.74125 -6.81223,4.81292 -17.3619,10.35735 -25.20985,13.24919 -17.81773,6.56551 -49.52774,12.40623 -77.11988,14.20483 -8.64474,0.56351 -35.88428,0.6899 -45.02783,0.20892 z"
     id="path3"
     transform="scale(0.046875)" />
</svg>
