<?xml version="1.0" encoding="UTF-8" standalone="no"?>
<svg
   id="Layer_1"
   data-name="Layer 1"
   viewBox="0 0 24 24"
   version="1.1"
   sodipodi:docname="experience.svg"
   inkscape:version="1.4 (e7c3feb100, 2024-10-09)"
   xmlns:inkscape="http://www.inkscape.org/namespaces/inkscape"
   xmlns:sodipodi="http://sodipodi.sourceforge.net/DTD/sodipodi-0.dtd"
   xmlns="http://www.w3.org/2000/svg"
   xmlns:svg="http://www.w3.org/2000/svg">
  <defs
     id="defs1" />
  <sodipodi:namedview
     id="namedview1"
     pagecolor="#ffffff"
     bordercolor="#999999"
     borderopacity="1"
     inkscape:showpageshadow="2"
     inkscape:pageopacity="0"
     inkscape:pagecheckerboard="0"
     inkscape:deskcolor="#d1d1d1"
     inkscape:zoom="35.541667"
     inkscape:cx="11.985932"
     inkscape:cy="12"
     inkscape:window-width="1920"
     inkscape:window-height="1056"
     inkscape:window-x="0"
     inkscape:window-y="0"
     inkscape:window-maximized="1"
     inkscape:current-layer="Layer_1" />
  <path
     d="M4.781,10.282l-1.309-.912-1.305,.912c-.498,.374-1.231-.167-1.022-.753l.465-1.456-1.219-.849c-.537-.349-.254-1.261,.388-1.24h1.595l.371-1.421c.168-.738,1.294-.737,1.462,0l.371,1.421h1.585c.64-.021,.922,.885,.387,1.234l-1.221,.853,.476,1.447c.216,.589-.524,1.138-1.025,.763Zm19.199-3.775c-.069-.305-.341-.522-.654-.522h-1.585l-.371-1.421c-.168-.738-1.294-.738-1.462,0l-.371,1.421h-1.595c-.642-.021-.924,.891-.388,1.24l1.219,.849-.465,1.456c-.21,.587,.524,1.127,1.022,.753l1.305-.912,1.309,.912c.502,.374,1.241-.175,1.025-.763l-.476-1.447,1.221-.853c.228-.159,.334-.442,.266-.712ZM8.92,3.225l1.219,.849-.465,1.456c-.209,.587,.524,1.127,1.022,.753l1.305-.912,1.309,.912c.502,.374,1.241-.175,1.025-.763l-.476-1.447,1.221-.853c.535-.349,.253-1.255-.387-1.234h-1.585l-.371-1.421c-.168-.738-1.294-.738-1.462,0l-.371,1.421h-1.595c-.642-.021-.924,.891-.388,1.24Zm3.08,13.775c-3.207,0-6.06,2.088-6.939,5.077-.234,.795,.221,1.628,1.016,1.862,.794,.232,1.628-.221,1.862-1.017,.506-1.721,2.176-2.923,4.061-2.923s3.555,1.202,4.061,2.923c.192,.654,.79,1.077,1.438,1.077,.14,0,.282-.02,.423-.061,.795-.234,1.25-1.067,1.016-1.862-.879-2.989-3.732-5.077-6.939-5.077Zm0-1c2.209,0,4-1.791,4-4s-1.791-4-4-4-4,1.791-4,4,1.791,4,4,4Z"
     id="path1" />
  <path
     style="opacity:0.905;fill:#9333ea;stroke-width:1"
     d="M 11.395076,15.939839 C 10.532326,15.796712 9.7797594,15.408332 9.1697264,14.791395 8.6163208,14.231727 8.2556483,13.552199 8.0838826,12.745604 c -0.071704,-0.336714 -0.071704,-1.154494 0,-1.491208 0.348243,-1.6353163 1.5351971,-2.8222704 3.1705134,-3.1705134 0.336714,-0.071704 1.154494,-0.071704 1.491208,0 1.635316,0.348243 2.82227,1.5351971 3.170513,3.1705134 0.0717,0.336714 0.0717,1.154494 0,1.491208 -0.173941,0.816814 -0.539329,1.499786 -1.105029,2.065484 -0.557845,0.557846 -1.241596,0.926861 -2.037348,1.099542 -0.295906,0.06421 -1.068944,0.08059 -1.378664,0.02921 z"
     id="path2" />
  <path
     style="opacity:0.905;fill:#9333ea;stroke-width:1"
     d="m 18.720432,10.34148 c -0.133135,-0.05793 -0.321812,-0.240505 -0.379546,-0.3672713 -0.02819,-0.061899 -0.05125,-0.1631888 -0.05125,-0.2250879 3e-6,-0.064207 0.107991,-0.4504052 0.251428,-0.8991855 0.138282,-0.432653 0.248788,-0.788274 0.245567,-0.7902691 -0.110821,-0.068652 -1.263936,-0.8814572 -1.309883,-0.9233084 -0.244301,-0.2225211 -0.24149,-0.6704112 0.0059,-0.942144 0.03307,-0.036324 0.110776,-0.0933 0.172675,-0.126612 0.107359,-0.057777 0.153669,-0.060959 1.00517,-0.06906 l 0.892626,-0.00849 0.02694,-0.1040513 c 0.267762,-1.034031 0.376437,-1.4308209 0.409276,-1.4943238 0.101553,-0.1963824 0.404149,-0.3682268 0.648399,-0.3682268 0.246278,0 0.546893,0.1719341 0.650323,0.3719464 0.03289,0.063607 0.432913,1.5267907 0.432913,1.5834966 0,0.00774 0.371493,0.014076 0.82554,0.014076 0.898841,0 1.003854,0.013771 1.190479,0.1561174 0.209934,0.1601239 0.296906,0.5359447 0.181997,0.7864383 -0.07562,0.1648406 -0.150348,0.2281421 -0.803407,0.6805339 -0.326003,0.2258316 -0.603274,0.4199983 -0.616156,0.431482 -0.01288,0.011484 0.09157,0.3709342 0.232121,0.7987788 0.16163,0.4920144 0.255318,0.8215321 0.254927,0.896624 -8.66e-4,0.1665257 -0.08209,0.3268407 -0.232835,0.4595267 -0.142641,0.125558 -0.28574,0.179714 -0.474866,0.179714 -0.153501,0 -0.231418,-0.04558 -1.007976,-0.5895824 -0.317233,-0.2222329 -0.59578,-0.4088404 -0.618992,-0.4146831 -0.02321,-0.00584 -0.333411,0.1933432 -0.689332,0.4426348 -0.35592,0.2492917 -0.694103,0.4776417 -0.751517,0.5074447 -0.123266,0.06399 -0.359547,0.07048 -0.490536,0.01349 z"
     id="path3" />
  <path
     style="opacity:0.905;fill:#9333ea;stroke-width:1"
     d="M 10.058617,6.3198136 C 9.9812427,6.2832352 9.8838648,6.2168874 9.8422214,6.1723746 9.7444423,6.0678578 9.6520494,5.8627417 9.6512627,5.7484381 9.6509228,5.6990589 9.7645198,5.3007886 9.9037004,4.8633929 10.042881,4.425997 10.147336,4.0598982 10.135822,4.0498399 10.124309,4.0397816 9.8250208,3.8304498 9.470738,3.584658 8.7356032,3.0746417 8.6889337,3.0252974 8.6706881,2.7387566 8.6560027,2.5081254 8.7183097,2.3375931 8.8740934,2.1820432 9.0496996,2.0067006 9.1082589,1.9976553 10.06783,1.9976553 h 0.846765 l 0.0322,-0.1195779 c 0.01771,-0.065768 0.111175,-0.4205685 0.207701,-0.7884458 0.187523,-0.7146886 0.226361,-0.79833628 0.437359,-0.94197748 0.218445,-0.14871038 0.544506,-0.15488887 0.792097,-0.0150093 0.24554,0.13872143 0.279268,0.21082032 0.507207,1.08423678 l 0.203762,0.7807737 h 0.842006 c 0.954398,0 1.013493,0.00916 1.18898,0.1843879 0.155038,0.1548058 0.218077,0.3262987 0.203587,0.5538496 -0.01835,0.2882231 -0.05786,0.3301691 -0.792834,0.841716 -0.358352,0.2494163 -0.661334,0.4621823 -0.673295,0.4728135 -0.01196,0.010631 0.09249,0.3683373 0.232122,0.7949017 0.264744,0.8087991 0.287348,0.9285003 0.210238,1.1133757 -0.1312,0.3145627 -0.550139,0.51004 -0.836523,0.3903222 -0.0498,-0.020816 -0.400023,-0.2541656 -0.778281,-0.5185545 l -0.687743,-0.4807067 -0.07193,0.050046 c -0.03956,0.027526 -0.346757,0.2422984 -0.682658,0.477273 -0.335901,0.2349744 -0.655189,0.4458033 -0.70953,0.4685082 -0.143526,0.059969 -0.318984,0.050556 -0.480444,-0.025775 z"
     id="path4" />
  <path
     style="opacity:0.905;fill:#9333ea;stroke-width:1"
     d="M 1.5574774,10.34148 C 1.4243429,10.283551 1.2356659,10.100975 1.1779319,9.9742087 1.1497408,9.9123095 1.1265607,9.8110199 1.1264205,9.7491208 1.1262742,9.6842009 1.2326814,9.3037151 1.3778805,8.8499676 1.5163238,8.4173329 1.6269459,8.0615792 1.6237075,8.059404 1.345646,7.8726488 0.36033873,7.1780145 0.31379176,7.1359237 -0.02625584,6.8284279 0.13921004,6.1597425 0.58866919,6.0250813 0.6586847,6.0041041 0.98953275,5.992966 1.5426253,5.992966 h 0.846765 L 2.416727,5.887456 C 2.6781933,4.878292 2.7924759,4.456343 2.81769,4.4070386 2.92508,4.1970455 3.2224603,4.0234467 3.4747948,4.0234467 c 0.2541589,0 0.5494399,0.1734432 0.6589629,0.3870638 0.02616,0.051023 0.4242728,1.5213282 0.4242728,1.566917 0,0.00694 0.4019929,0.016437 0.8933177,0.02111 l 0.8933177,0.0085 0.1285865,0.075595 C 6.778762,6.2622356 6.895736,6.6517596 6.7387597,6.9667695 6.7001774,7.0441944 6.6337061,7.1333391 6.5910457,7.1648683 6.5483857,7.1963977 6.2539273,7.403004 5.936694,7.6239936 5.6194607,7.844983 5.3494362,8.0353125 5.3366394,8.0469485 c -0.012797,0.011636 0.091658,0.3722543 0.232122,0.8013743 0.1458581,0.4455995 0.2553887,0.8275799 0.2553887,0.8906499 0,0.3279833 -0.337756,0.6422513 -0.6909871,0.6429333 C 4.959591,10.38224 4.9037005,10.350117 4.1078546,9.7925987 3.7906213,9.5703658 3.5120497,9.3835509 3.4888066,9.377455 3.4655634,9.3713588 3.1806865,9.5529203 2.8557469,9.7809248 2.0261826,10.363015 1.9921316,10.382415 1.8023586,10.381079 1.7163369,10.380474 1.6061403,10.362654 1.5574774,10.34148 Z"
     id="path5" />
  <path
     style="opacity:0.905;fill:#9333ea;stroke-width:1"
     d="M 6.049238,23.907832 C 5.6487544,23.770793 5.3596656,23.518252 5.176612,23.145525 5.018832,22.82426 4.9821012,22.568763 5.0465443,22.24078 c 0.1058371,-0.538658 0.4777063,-1.370361 0.8910761,-1.992934 1.0225237,-1.540013 2.6525882,-2.653705 4.4726966,-3.055834 0.597716,-0.132058 0.833812,-0.155361 1.575615,-0.155518 0.748204,-1.58e-4 0.961791,0.01957 1.533411,0.141631 2.259647,0.482515 4.168651,2.002758 5.083249,4.048068 0.17411,0.389359 0.320647,0.820036 0.36277,1.066193 0.07331,0.428423 -0.09244,0.917131 -0.42327,1.24796 -0.293872,0.293872 -0.626092,0.431518 -1.041506,0.431518 -0.393486,0 -0.74054,-0.135396 -1.010492,-0.394224 -0.201394,-0.193095 -0.317518,-0.391659 -0.452667,-0.774031 -0.235649,-0.666712 -0.480946,-1.058507 -0.969713,-1.548852 -0.376853,-0.37807 -0.730169,-0.631562 -1.169751,-0.839257 -1.210608,-0.571992 -2.585318,-0.571992 -3.795926,0 -0.4395824,0.207695 -0.7928976,0.461187 -1.169751,0.839257 -0.4787069,0.480253 -0.7410922,0.894505 -0.9539975,1.506166 -0.055527,0.159526 -0.1413955,0.365914 -0.190818,0.45864 -0.1725757,0.323786 -0.5176661,0.597395 -0.8922255,0.707413 -0.2292471,0.06734 -0.6190526,0.05851 -0.846007,-0.01914 z"
     id="path6" />
  <path
     style="opacity:0.905;fill:#9333ea;stroke-width:1"
     d="M 11.298143,15.909549 C 10.804289,15.816316 10.25058,15.586165 9.7946204,15.284607 9.4975883,15.088158 9.052294,14.662567 8.8201566,14.353262 8.5062454,13.935 8.2395318,13.354702 8.1135819,12.815944 8.0376269,12.491042 8.0375627,11.509437 8.1134752,11.184056 8.469921,9.6562379 9.6013856,8.510705 11.135612,8.1243434 c 0.2142,-0.053942 0.322297,-0.061899 0.85032,-0.06259 0.493972,-6.468e-4 0.646208,0.00886 0.830012,0.051828 0.751876,0.1757723 1.454998,0.5620796 1.981696,1.0887777 0.526698,0.5266981 0.913006,1.2298209 1.088778,1.9816969 0.07602,0.325202 0.07602,1.306686 0,1.631888 -0.171723,0.734556 -0.51585,1.373215 -1.026713,1.905462 -0.556102,0.579379 -1.204554,0.95509 -1.987489,1.151544 -0.307879,0.07725 -1.243497,0.09901 -1.574073,0.0366 z"
     id="path7" />
  <path
     style="opacity:0.905;fill:#9333ea;stroke-width:1"
     d="m 6.2933151,23.942136 c -0.6637866,-0.07709 -1.2569728,-0.747831 -1.2569728,-1.421302 0,-0.48937 0.4062361,-1.484983 0.9242717,-2.265226 1.120264,-1.687293 2.8637333,-2.790857 4.984286,-3.154903 0.341298,-0.05859 1.854851,-0.04759 2.194608,0.01596 1.633006,0.305419 2.91628,0.963494 4.010998,2.056878 0.779831,0.77888 1.328668,1.65377 1.66321,2.651292 0.202363,0.603399 0.197729,0.89158 -0.02138,1.329338 -0.142556,0.284819 -0.395932,0.529069 -0.698966,0.67379 -0.210872,0.100707 -0.216524,0.1017 -0.57872,0.1017 -0.430872,0 -0.596631,-0.04827 -0.871294,-0.253706 -0.286532,-0.214317 -0.422666,-0.425267 -0.629344,-0.975215 -0.225983,-0.601318 -0.438104,-0.934792 -0.889124,-1.39779 -0.39699,-0.407534 -0.7036,-0.638271 -1.127237,-0.848295 -0.386089,-0.191409 -0.716122,-0.306546 -1.139507,-0.397535 -0.250954,-0.05393 -0.380141,-0.06349 -0.858148,-0.06349 -0.478007,0 -0.607194,0.0096 -0.858148,0.06349 -0.880707,0.189271 -1.5281878,0.527335 -2.1340997,1.114259 -0.5435516,0.526517 -0.7579805,0.853997 -1.05986,1.61864 -0.1824145,0.462045 -0.2531953,0.577783 -0.4802702,0.785316 -0.3307467,0.302284 -0.7099596,0.420734 -1.174307,0.366802 z"
     id="path8" />
  <path
     style="opacity:0.905;fill:#9333ea;stroke-width:1"
     d="M 6.1365899,23.899202 C 5.8991164,23.835342 5.714303,23.722132 5.4981222,23.508101 5.1540119,23.167413 4.9987606,22.741027 5.0651132,22.318875 c 0.077368,-0.492237 0.4628315,-1.37795 0.8704444,-2.000098 1.0359225,-1.581151 2.5780789,-2.646127 4.4888274,-3.099876 0.578203,-0.137307 0.725254,-0.148607 1.725022,-0.132561 l 0.919761,0.01476 0.42204,0.09827 c 1.265017,0.294551 2.237779,0.766645 3.15123,1.529336 0.941439,0.786059 1.629094,1.724227 2.04893,2.795356 0.254351,0.648926 0.307867,1.03286 0.192203,1.378921 -0.141502,0.423369 -0.418574,0.736017 -0.820965,0.926378 -0.169218,0.08005 -0.204438,0.08619 -0.494874,0.08621 -0.397912,2.8e-5 -0.576794,-0.03455 -0.766637,-0.148196 -0.372572,-0.223032 -0.505529,-0.405883 -0.778861,-1.071135 -0.284439,-0.692283 -0.480376,-0.986742 -0.988593,-1.485678 -0.360366,-0.353786 -0.618549,-0.548166 -0.957211,-0.720664 -0.783483,-0.399067 -1.432006,-0.540279 -2.316833,-0.504477 -0.624166,0.02526 -1.159754,0.163183 -1.724226,0.444031 -0.3991774,0.198606 -0.662965,0.39027 -1.0415806,0.756795 -0.5295925,0.512681 -0.7190561,0.796898 -1.0316801,1.547634 -0.2067749,0.49655 -0.2395374,0.553728 -0.4323119,0.754483 -0.3725301,0.387951 -0.8999557,0.543482 -1.3932085,0.410838 z"
     id="path9" />
  <path
     style="opacity:0.905;fill:#9333ea;stroke-width:1"
     d="M 11.22626,15.883188 C 10.793394,15.796809 10.251405,15.5663 9.8324542,15.290399 9.5482599,15.103242 9.0371447,14.622796 8.8348103,14.352618 8.5542658,13.978006 8.3103704,13.478446 8.1729848,12.997031 8.1050845,12.7591 8.0957067,12.671083 8.0826594,12.14927 8.0613765,11.298077 8.121739,10.979139 8.4255766,10.337397 8.9017769,9.3316022 9.7415555,8.5897066 10.808789,8.2319666 c 0.395103,-0.1324398 0.578753,-0.1569373 1.176507,-0.1569373 0.616027,0 0.821745,0.027648 1.23439,0.1658965 0.771708,0.2585458 1.564597,0.8424965 1.992863,1.4677128 0.342585,0.5001324 0.617717,1.1502894 0.681823,1.6111934 0.03932,0.2827 0.03947,1.076585 2.53e-4,1.358536 -0.06142,0.441581 -0.303997,1.038695 -0.607712,1.495898 -0.241272,0.363203 -0.614725,0.744969 -1.040328,1.063485 -0.395711,0.296145 -1.130181,0.600339 -1.588162,0.657765 -0.321929,0.04037 -1.206242,0.03275 -1.43216,-0.01233 z"
     id="path10" />
  <path
     style="opacity:0.905;fill:#9333ea;stroke-width:1;fill-opacity:1"
     d="M 18.682298,10.296369 C 18.451289,10.154197 18.31653,9.9607414 18.31653,9.7712843 c 0,-0.116306 0.0758,-0.3944193 0.322176,-1.1820191 0.08821,-0.2820003 0.154035,-0.5230087 0.146269,-0.5355742 -0.0078,-0.012565 -0.277167,-0.2059878 -0.598669,-0.4298276 -0.321502,-0.2238401 -0.6377,-0.4591929 -0.702662,-0.5230062 -0.27957,-0.2746297 -0.20483,-0.7791794 0.147898,-0.99841 0.106398,-0.06613 0.123349,-0.06756 1.017812,-0.085902 0.500286,-0.010259 0.912641,-0.022926 0.916343,-0.02815 0.0037,-0.00522 0.09322,-0.3386886 0.198934,-0.7410332 0.105712,-0.4023447 0.215076,-0.7774226 0.243033,-0.8335065 0.106675,-0.214003 0.363281,-0.3610373 0.630085,-0.3610373 0.279795,0 0.553577,0.1670659 0.643959,0.3929533 0.05394,0.1348129 0.411141,1.4343637 0.411141,1.4957989 0,0.037462 0.113146,0.045838 0.851113,0.063004 0.468113,0.010889 0.896681,0.031696 0.952375,0.046239 0.267207,0.069773 0.447391,0.3209168 0.447391,0.6235826 0,0.2038246 -0.06671,0.344123 -0.230157,0.4840247 -0.06575,0.056284 -0.369614,0.2760496 -0.675244,0.4883691 -0.645786,0.4486247 -0.595155,0.3254023 -0.395615,0.9628234 0.351281,1.1221455 0.362028,1.1786412 0.261642,1.3754144 -0.06405,0.1255384 -0.2264,0.2755804 -0.357441,0.3303324 -0.05092,0.02128 -0.160208,0.03868 -0.242858,0.03868 -0.181627,0 -0.230402,-0.02749 -1.043131,-0.5879711 C 20.944472,9.5478349 20.667859,9.36928 20.64623,9.36928 c -0.04138,0 -0.279267,0.154215 -1.021377,0.662134 l -0.450175,0.308112 -0.196952,0.0087 c -0.162327,0.0072 -0.214265,-0.0019 -0.295428,-0.05188 z"
     id="path11" />
  <path
     style="opacity:0.905;fill:#9333ea;stroke-width:1"
     d="M 10.058617,6.2979725 C 9.8993918,6.215527 9.8242679,6.1399681 9.743251,5.98078 9.6466734,5.7910171 9.6574896,5.7202287 9.9112021,4.8815944 10.028242,4.4947245 10.1306,4.1465416 10.138663,4.1078546 10.152082,4.0434786 10.105514,4.0041895 9.5894462,3.6444796 8.7320706,3.0468712 8.6938375,3.005735 8.6942851,2.6813503 8.6945073,2.5203845 8.7079844,2.4666083 8.7792415,2.3423575 8.8285391,2.2563976 8.9122926,2.1626775 8.9796462,2.118105 9.0912954,2.0442191 9.1132587,2.0408359 9.6051236,2.0217588 9.8854944,2.0108845 10.298476,2.0009684 10.52286,1.999723 l 0.407972,-0.00226 0.173964,-0.6550011 c 0.09568,-0.36025058 0.201857,-0.73054633 0.235947,-0.82287936 0.15565,-0.42156843 0.590831,-0.58439573 1.006606,-0.37663088 0.269528,0.13468477 0.29598,0.19284014 0.579868,1.27481814 l 0.148459,0.5658219 0.700146,0.019009 c 1.108679,0.030101 1.116595,0.030844 1.246735,0.1169664 0.06516,0.043125 0.14958,0.1380129 0.198201,0.2227945 0.07126,0.1242508 0.08474,0.178027 0.08496,0.3389928 4.47e-4,0.3243225 -0.03549,0.3629169 -0.896035,0.9622605 -0.553208,0.3852937 -0.565196,0.3957375 -0.548437,0.477793 0.0094,0.046139 0.111399,0.3816605 0.226612,0.7456037 0.238621,0.7537731 0.269962,0.9443694 0.183075,1.1133688 C 14.153728,6.2083417 13.911431,6.3570272 13.655369,6.358116 13.520615,6.35869 13.485795,6.342686 13.177057,6.1382904 12.99392,6.0170465 12.666969,5.7939196 12.450501,5.6424532 12.234033,5.4909864 12.041635,5.3611929 12.022951,5.354023 c -0.01869,-0.00717 -0.335361,0.1953023 -0.703725,0.4499384 -0.368365,0.254636 -0.710274,0.4836289 -0.759798,0.5088734 -0.125938,0.064195 -0.361639,0.0572 -0.500811,-0.014862 z"
     id="path12" />
  <path
     style="opacity:0.905;fill:#9333ea;stroke-width:1"
     d="M 5.0453852,10.352538 C 4.9238093,10.327116 4.8354114,10.27256 4.1313597,9.7884329 3.7961048,9.5579015 3.5063918,9.3692849 3.4875531,9.3692849 c -0.04938,0 -0.1700393,0.0766 -0.800566,0.5082401 -0.3094959,0.211872 -0.6032399,0.405763 -0.6527645,0.43087 -0.1318198,0.06683 -0.3921944,0.05995 -0.5148791,-0.0136 C 1.2907699,10.157771 1.1534532,9.961171 1.1537325,9.7713437 1.1539267,9.6389714 1.1651886,9.5968989 1.424967,8.7580021 1.5410588,8.3831097 1.6291332,8.0651994 1.620688,8.0515346 1.6122428,8.0378701 1.3187406,7.8260292 0.96846083,7.580777 0.61818106,7.3355246 0.30094324,7.0946859 0.26348791,7.0455793 0.22603258,6.9964727 0.18103867,6.8878872 0.16350143,6.8042779 0.13648797,6.6754904 0.13930284,6.6278211 0.18192243,6.4923223 0.20959121,6.4043561 0.27464751,6.2828275 0.32649198,6.2222589 0.48620649,6.0356684 0.5318277,6.0273751 1.5224491,6.0048484 L 2.4062379,5.9847511 2.6111586,5.2080848 C 2.7759429,4.5835389 2.8315277,4.4121307 2.8949525,4.3329426 3.110752,4.0635094 3.4846956,3.974112 3.7837984,4.1204493 c 0.1601258,0.078342 0.3362985,0.2554058 0.3599735,0.3617941 0.00755,0.033946 0.090179,0.3402654 0.1836113,0.6807109 0.093432,0.3404455 0.1782628,0.6645241 0.1885134,0.7201747 l 0.018637,0.1011829 0.4664179,0.018395 c 0.2565299,0.010117 0.6639787,0.018395 0.9054417,0.018395 h 0.4390239 l 0.1441112,0.09705 C 6.7684054,6.305959 6.8613715,6.6642582 6.7100261,6.967969 6.6446825,7.0990967 6.588846,7.1451877 5.97903,7.5713833 5.3310302,8.0242649 5.3190902,8.0343911 5.3354133,8.1172333 5.3445608,8.1636577 5.4094596,8.3852286 5.479633,8.6096131 5.7231649,9.3883262 5.7960135,9.6562233 5.7959088,9.7727029 5.79574,9.9586945 5.646801,10.172336 5.4443142,10.277032 c -0.1407841,0.07279 -0.2830951,0.09973 -0.398929,0.07551 z"
     id="path13" />
  <path
     style="opacity:0.905;fill:#9333ea;stroke-width:1"
     d="M 11.22626,15.8829 C 10.81078,15.799333 10.208267,15.541168 9.8149985,15.278201 9.5308381,15.088192 9.034266,14.615442 8.8301774,14.340625 8.5424568,13.953194 8.3139967,13.481707 8.166373,12.970692 8.1066422,12.763927 8.0953145,12.65516 8.082737,12.16763 8.0600563,11.288481 8.1362535,10.909154 8.466209,10.258617 8.8764387,9.4498129 9.4944943,8.8362335 10.283705,8.4542847 c 0.367234,-0.1777279 0.681552,-0.2876519 0.970691,-0.3394725 0.306665,-0.054961 1.236109,-0.052158 1.513496,0.00456 0.662779,0.1355318 1.316423,0.4684807 1.870211,0.9526353 0.540652,0.4726706 0.975542,1.1818165 1.193367,1.9459405 0.07776,0.272766 0.07941,0.293497 0.07852,0.982048 -8.18e-4,0.634191 -0.007,0.725701 -0.06251,0.930055 -0.204179,0.751259 -0.560266,1.356695 -1.108033,1.883929 -0.364098,0.350451 -0.601217,0.521355 -0.995021,0.717165 -0.414507,0.206105 -0.785595,0.328626 -1.106807,0.365433 -0.341333,0.03911 -1.189768,0.03089 -1.411364,-0.01368 z"
     id="path14" />
  <path
     style="opacity:0.905;fill:#9333ea;stroke-width:1"
     d="M 6.1365899,23.899202 C 5.7632496,23.798805 5.3731836,23.466264 5.195942,23.097274 4.9692322,22.6253 5.0085209,22.221611 5.3616223,21.394919 c 0.8460486,-1.980794 2.5355673,-3.45312 4.6748517,-4.073884 0.740483,-0.214869 0.861036,-0.228601 1.991662,-0.22687 0.953917,0.0015 1.030098,0.0054 1.308324,0.06705 0.417946,0.09266 0.975074,0.258557 1.333686,0.397127 1.991002,0.769335 3.673331,2.568575 4.196183,4.487788 0.117207,0.43023 0.099,0.69584 -0.07384,1.077204 -0.103089,0.22746 -0.414956,0.542877 -0.672911,0.680569 l -0.182884,0.09762 -0.436108,-2.81e-4 c -0.372553,-2.25e-4 -0.452509,-0.0082 -0.548652,-0.0545 C 16.76118,23.754842 16.526753,23.585597 16.424109,23.46568 16.31657,23.340044 16.144998,23.009377 16.011247,22.669978 15.772365,22.063804 15.567577,21.75685 15.067297,21.255106 14.51171,20.697893 14.03536,20.401794 13.335786,20.178798 12.830857,20.017847 12.64653,19.992064 12,19.991951 c -0.512616,-8.4e-5 -0.62929,0.0084 -0.881106,0.06428 -0.391636,0.08688 -0.666064,0.180224 -1.015572,0.345438 -0.4087606,0.193224 -0.7216747,0.412148 -1.0803462,0.755841 -0.5284715,0.506402 -0.7453277,0.826985 -1.0472857,1.548224 -0.087463,0.208909 -0.1954695,0.444015 -0.2400138,0.522457 -0.096478,0.169897 -0.3527337,0.420906 -0.5434745,0.532348 -0.2921639,0.1707 -0.7250175,0.227554 -1.0556119,0.138652 z"
     id="path15" />
</svg>
