<?xml version="1.0" encoding="UTF-8" standalone="no"?>
<svg
   id="Layer_1"
   data-name="Layer 1"
   viewBox="0 0 24 24"
   width="512"
   height="512"
   version="1.1"
   sodipodi:docname="home.svg"
   inkscape:version="1.4 (e7c3feb100, 2024-10-09)"
   xmlns:inkscape="http://www.inkscape.org/namespaces/inkscape"
   xmlns:sodipodi="http://sodipodi.sourceforge.net/DTD/sodipodi-0.dtd"
   xmlns="http://www.w3.org/2000/svg"
   xmlns:svg="http://www.w3.org/2000/svg">
  <defs
     id="defs1" />
  <sodipodi:namedview
     id="namedview1"
     pagecolor="#ffffff"
     bordercolor="#999999"
     borderopacity="1"
     inkscape:showpageshadow="2"
     inkscape:pageopacity="0"
     inkscape:pagecheckerboard="0"
     inkscape:deskcolor="#d1d1d1"
     inkscape:zoom="1.6660156"
     inkscape:cx="256.30012"
     inkscape:cy="256"
     inkscape:window-width="1920"
     inkscape:window-height="1056"
     inkscape:window-x="0"
     inkscape:window-y="0"
     inkscape:window-maximized="1"
     inkscape:current-layer="Layer_1" />
  <path
     d="M22,5.724V2c0-.552-.447-1-1-1s-1,.448-1,1v2.366L14.797,.855c-1.699-1.146-3.895-1.146-5.594,0L2.203,5.579c-1.379,.931-2.203,2.48-2.203,4.145v9.276c0,2.757,2.243,5,5,5h2c.553,0,1-.448,1-1V14c0-.551,.448-1,1-1h6c.552,0,1,.449,1,1v9c0,.552,.447,1,1,1h2c2.757,0,5-2.243,5-5V9.724c0-1.581-.744-3.058-2-4Z"
     id="path1" />
  <path
     style="opacity:0.905;mix-blend-mode:normal;fill:#9333ea;stroke-width:1;fill-rule:nonzero;fill-opacity:1"
     d="M 99.638921,511.40461 C 60.455724,508.77313 25.400626,484.14554 9.3683299,447.98596 4.1861316,436.29792 1.4575313,424.75531 0.59210393,410.86049 -0.14917159,398.95899 -0.14489696,213.00046 0.59691535,201.5499 1.2649274,191.23852 2.840319,182.86258 5.7658589,174.068 11.572042,156.61379 22.694114,139.72568 36.118809,127.97912 c 6.014202,-5.2624 4.597209,-4.2876 93.531831,-64.343943 76.47276,-51.641006 80.0749,-53.8742992 93.92537,-58.2327871 26.56723,-8.3602192 53.06583,-6.5374003 78.08844,5.3716461 7.45526,3.548187 15.02598,8.529951 93.28983,61.387478 l 31.51231,21.282658 0.30012,-27.664645 0.30011,-27.664638 1.68202,-3.601407 c 3.93264,-8.420291 12.33628,-13.5151 20.99713,-12.729761 7.57034,0.686454 15.20009,6.420863 17.80442,13.381544 1.20021,3.20787 1.23273,4.399156 1.23273,45.165332 v 41.870553 l 2.99686,2.28543 c 1.64826,1.25699 5.27371,4.54189 8.05654,7.29977 19.11012,18.93881 29.80565,42.58477 31.56838,69.79217 0.73664,11.36983 0.74443,197.34501 0.009,209.2902 -1.71494,27.84626 -12.67292,51.70153 -32.55711,70.87611 -11.78012,11.3597 -24.28801,19.03492 -39.5726,24.28293 -14.25799,4.89552 -27.93788,6.22187 -60.29119,5.84565 -19.39787,-0.22557 -20.51323,-0.30006 -23.77499,-1.5879 -4.77195,-1.88408 -9.00994,-5.8813 -11.41514,-10.76658 l -1.9691,-3.99954 -0.30012,-101.15243 -0.30012,-101.15242 -1.59687,-3.40642 c -2.13555,-4.55554 -5.89836,-8.51131 -10.02276,-10.53675 l -3.38623,-1.66293 -69.42845,-0.15985 c -68.93903,-0.15873 -69.45185,-0.15109 -72.74939,1.08267 -4.62277,1.7296 -8.90337,5.76205 -11.31377,10.6579 l -1.96911,3.99954 -0.30012,101.16534 -0.30012,101.16535 -1.96911,3.99954 c -2.40282,4.88045 -6.63718,8.87709 -11.41514,10.77427 -3.3305,1.32244 -4.05034,1.36179 -26.83146,1.46694 -12.87503,0.0594 -26.51536,-0.10056 -30.311839,-0.35553 z"
     id="path2"
     transform="scale(0.046875)" />
</svg>
