<?xml version="1.0" encoding="UTF-8" standalone="no"?>
<svg
   id="Layer_1"
   data-name="Layer 1"
   viewBox="0 0 24 24"
   version="1.1"
   sodipodi:docname="projects.svg"
   inkscape:version="1.4 (e7c3feb100, 2024-10-09)"
   xmlns:inkscape="http://www.inkscape.org/namespaces/inkscape"
   xmlns:sodipodi="http://sodipodi.sourceforge.net/DTD/sodipodi-0.dtd"
   xmlns="http://www.w3.org/2000/svg"
   xmlns:svg="http://www.w3.org/2000/svg">
  <defs
     id="defs1" />
  <sodipodi:namedview
     id="namedview1"
     pagecolor="#ffffff"
     bordercolor="#999999"
     borderopacity="1"
     inkscape:showpageshadow="2"
     inkscape:pageopacity="0"
     inkscape:pagecheckerboard="0"
     inkscape:deskcolor="#d1d1d1"
     inkscape:zoom="35.541667"
     inkscape:cx="11.985932"
     inkscape:cy="12"
     inkscape:window-width="1920"
     inkscape:window-height="1056"
     inkscape:window-x="0"
     inkscape:window-y="0"
     inkscape:window-maximized="1"
     inkscape:current-layer="Layer_1" />
  <path
     d="M.101,4C.566,1.721,2.586,0,5,0h14c2.414,0,4.434,1.721,4.899,4H.101Zm23.899,2v13c0,2.757-2.243,5-5,5H5c-2.757,0-5-2.243-5-5V6H24ZM3,10c0,.552,.447,1,1,1h5c.553,0,1-.448,1-1s-.447-1-1-1H4c-.553,0-1,.448-1,1Zm12,10c0-.553-.447-1-1-1H4c-.553,0-1,.447-1,1s.447,1,1,1H14c.553,0,1-.447,1-1Zm0-5c0-.553-.447-1-1-1H7c-.553,0-1,.447-1,1s.447,1,1,1h7c.553,0,1-.447,1-1Zm6,5c0-.738-.405-1.376-1-1.723v-6.277c0-1.654-1.346-3-3-3h-1.277c-.346-.595-.984-1-1.723-1-1.105,0-2,.895-2,2s.895,2,2,2c.738,0,1.376-.405,1.723-1h1.277c.552,0,1,.449,1,1v6.277c-.595,.346-1,.984-1,1.723,0,1.105,.895,2,2,2s2-.895,2-2Z"
     id="path1" />
  <path
     style="opacity:0.905;fill:#9333ea;stroke-width:1"
     d="M 4.6705744,23.970978 C 2.8425735,23.8545 1.1907017,22.694429 0.43914046,20.999342 0.19622492,20.451465 0.06832178,19.910405 0.02775487,19.259086 0.01281513,19.019221 0.00115153,16.071011 7.3423118e-4,12.429074 L 0,6.021102 h 12 12 l -7.34e-4,6.407972 c -4.11e-4,3.590706 -0.01217,6.593691 -0.02675,6.830397 -0.07648,1.241912 -0.542894,2.310882 -1.391168,3.188432 -0.899091,0.930122 -2.008735,1.440669 -3.314406,1.524957 C 18.793869,24.0034 5.1517882,24.00164 4.6705744,23.97096 Z M 19.505111,21.947914 c 0.978584,-0.25028 1.621508,-1.200395 1.488466,-2.199657 -0.07554,-0.567382 -0.355104,-1.037252 -0.813038,-1.366504 l -0.17585,-0.126435 v -3.292055 c 0,-3.218097 -0.0013,-3.298476 -0.05823,-3.577835 C 19.683867,10.096626 18.600914,9.1291318 17.280777,9.0039438 17.115388,8.9882603 16.7001,8.9754176 16.357913,8.9754046 L 15.735756,8.975381 15.591319,8.7811421 C 15.34625,8.4515742 15.017142,8.215723 14.616647,8.082655 14.415962,8.015975 14.348855,8.007867 13.997655,8.007867 c -0.351773,0 -0.417978,0.00803 -0.618991,0.075065 -1.162864,0.387805 -1.716359,1.6854358 -1.192154,2.794919 0.469013,0.992668 1.688753,1.413811 2.683361,0.926492 0.337399,-0.165312 0.66082,-0.448583 0.820184,-0.718364 l 0.0501,-0.08481 0.605891,2.25e-4 c 0.33324,1.13e-4 0.686441,0.01328 0.78489,0.02926 0.338701,0.05496 0.605887,0.25183 0.755642,0.556781 l 0.07825,0.15934 0.0075,3.264474 0.0075,3.264473 -0.0919,0.05363 c -0.160928,0.09391 -0.471983,0.41601 -0.598696,0.619948 -0.0674,0.108482 -0.158014,0.29853 -0.201358,0.422329 -0.07235,0.206635 -0.07881,0.258535 -0.07881,0.633059 0,0.375002 0.0064,0.42614 0.07902,0.63279 0.102525,0.291681 0.241866,0.519858 0.453203,0.742137 0.402237,0.423063 0.858436,0.618088 1.453049,0.62118 0.206908,0.0011 0.362997,-0.01508 0.510784,-0.05288 z m -5.094556,-1.01925 c 0.322359,-0.151116 0.529481,-0.423365 0.586308,-0.770666 0.03228,-0.197263 -0.004,-0.445036 -0.08963,-0.612985 -0.08757,-0.17165 -0.295399,-0.375709 -0.469961,-0.461435 l -0.158252,-0.07772 -5.19109,-0.0086 c -3.7338832,-0.0062 -5.2320231,1.97e-4 -5.3369073,0.02269 -0.461681,0.09909 -0.8087226,0.593175 -0.7579361,1.079074 0.044109,0.422009 0.3647705,0.792024 0.7696702,0.888129 0.060595,0.01438 2.3280591,0.02327 5.2970372,0.02075 l 5.19109,-0.0044 z m 0.02856,-5.011974 c 0.347747,-0.170771 0.565541,-0.525998 0.564188,-0.920207 -0.0014,-0.406939 -0.20102,-0.72795 -0.563733,-0.906526 l -0.18748,-0.0923 -3.686419,-0.0076 c -3.6294932,-0.0075 -3.6892433,-0.0067 -3.8693032,0.0492 -0.2257072,0.07009 -0.4125232,0.204979 -0.5304479,0.383013 -0.3098847,0.467841 -0.1919479,1.106972 0.2604389,1.411385 0.2713297,0.182579 0.02813,0.172736 4.1246392,0.166931 l 3.728019,-0.0053 z M 9.4769335,10.890602 c 0.2064976,-0.111959 0.3476364,-0.262229 0.4511009,-0.480285 0.062117,-0.130915 0.073494,-0.19384 0.073868,-0.408564 C 10.002304,9.7712984 9.9938493,9.730681 9.9100426,9.560445 9.7977594,9.3323662 9.5998261,9.1451257 9.3749579,9.0542673 L 9.2145369,8.989449 H 6.4994138 3.7842907 L 3.6238697,9.054267 C 3.2786425,9.1937568 3.0272643,9.5334001 2.9923245,9.9075638 c -0.03427,0.3669882 0.1600828,0.7679052 0.4564566,0.9415922 0.2688901,0.15758 0.118728,0.150587 3.0928367,0.144029 l 2.7573271,-0.0061 z"
     id="path2" />
  <path
     style="opacity:0.905;fill:#9333ea;stroke-width:1"
     d="M 0.15847618,3.8194607 C 0.27010443,3.3400015 0.54594055,2.7093162 0.8322045,2.2790152 1.0591161,1.9379304 1.2579905,1.7017313 1.5721643,1.4001797 2.2651878,0.73499902 3.0834356,0.30628175 4.03335,0.11065268 4.560601,0.0020685 5.0191141,-0.00366574 12.365768,0.00644614 c 6.594077,0.00907604 7.110361,0.0132002 7.377357,0.05893163 1.432773,0.24540718 2.630093,1.01932773 3.424682,2.21363743 0.288944,0.4342983 0.56102,1.0563968 0.673717,1.5404455 l 0.04094,0.17585 H 12 0.11753459 Z"
     id="path3" />
</svg>
