<?xml version="1.0" encoding="UTF-8" standalone="no"?>
<svg
   id="Layer_1"
   data-name="Layer 1"
   viewBox="0 0 24 24"
   version="1.1"
   sodipodi:docname="skills.svg"
   inkscape:version="1.4 (e7c3feb100, 2024-10-09)"
   xmlns:inkscape="http://www.inkscape.org/namespaces/inkscape"
   xmlns:sodipodi="http://sodipodi.sourceforge.net/DTD/sodipodi-0.dtd"
   xmlns="http://www.w3.org/2000/svg"
   xmlns:svg="http://www.w3.org/2000/svg">
  <defs
     id="defs1" />
  <sodipodi:namedview
     id="namedview1"
     pagecolor="#ffffff"
     bordercolor="#999999"
     borderopacity="1"
     inkscape:showpageshadow="2"
     inkscape:pageopacity="0"
     inkscape:pagecheckerboard="0"
     inkscape:deskcolor="#d1d1d1"
     inkscape:zoom="35.541667"
     inkscape:cx="11.985932"
     inkscape:cy="12"
     inkscape:window-width="1920"
     inkscape:window-height="1056"
     inkscape:window-x="0"
     inkscape:window-y="0"
     inkscape:window-maximized="1"
     inkscape:current-layer="Layer_1" />
  <path
     d="m11.66,15h2.34v-2h-1.432c.277-.776.432-1.459.432-1.916,0-1.188-.812-2.084-1.889-2.084H2.889c-1.077,0-1.889.896-1.889,2.084,0,.457.155,1.14.432,1.916H0v2h2.338c.892,1.627,2.171,3.216,3.662,3.87v1.855c0,1.333-1.222,1.275-1.222,1.275h-1.778v2h8v-2h-1.805c-.134.001-1.195-.025-1.195-1.275v-1.858c1.491-.656,2.769-2.242,3.66-3.867ZM21.5,0h-13c-1.378,0-2.5,1.122-2.5,2.5v2c0,1.378,1.122,2.5,2.5,2.5h13c1.379,0,2.5-1.122,2.5-2.5v-2c0-1.378-1.121-2.5-2.5-2.5Zm.5,4.5c0,.276-.225.5-.5.5h-7.5v-3h7.5c.275,0,.5.224.5.5v2Zm-.5,4.5h-6.997c.346.613.518,1.297.5,2h.997v5h5.5c1.379,0,2.5-1.122,2.5-2.5v-2c0-1.378-1.121-2.5-2.5-2.5Zm.5,4.5c0,.276-.225.5-.5.5h-2.5v-3h2.5c.275,0,.5.224.5.5v2Z"
     id="path1" />
  <path
     style="opacity:0.905;fill:#9333ea;stroke-width:1"
     d="M 3.010551,23.001172 V 22.002345 H 4.02094 c 0.9126199,0 1.0269614,-0.0052 1.181659,-0.05331 0.4466645,-0.139017 0.7196981,-0.466496 0.7890516,-0.946395 0.015585,-0.107843 0.028588,-0.633279 0.028894,-1.167635 L 6.021102,18.863453 5.8048429,18.756445 C 4.8495587,18.283758 3.8564562,17.321051 2.9855561,16.023447 2.819379,15.77585 2.6100819,15.443494 2.5204514,15.284877 L 2.3574867,14.996483 H 1.1787434 0 v -0.98476 -0.984759 h 0.71746776 c 0.57341394,0 0.71746774,-0.0074 0.71746774,-0.03693 0,-0.02031 -0.038602,-0.150087 -0.085783,-0.288394 -0.123,-0.360566 -0.2688395,-0.968979 -0.3092764,-1.290237 -0.15304512,-1.215892 0.548136,-2.2368924 1.633851,-2.3790746 0.1682437,-0.022033 1.4879508,-0.028523 4.4868825,-0.022068 3.9992754,0.00861 4.2584394,0.012126 4.4173504,0.059936 0.684538,0.2059493 1.200437,0.7844466 1.35493,1.5193352 0.05416,0.257642 0.05251,0.721927 -0.0037,1.0447 -0.04785,0.274662 -0.195824,0.832151 -0.309361,1.165538 -0.03913,0.114903 -0.07115,0.213027 -0.07115,0.218054 0,0.005 0.32286,0.0091 0.717468,0.0091 h 0.717467 v 0.984451 0.984451 l -1.170645,0.0073 -1.170645,0.0073 -0.278581,0.461111 c -0.946838,1.567224 -2.0485257,2.714778 -3.1255767,3.255705 l -0.247518,0.124311 v 1.03691 c 0,0.578857 0.012524,1.102948 0.028351,1.186404 0.070732,0.372969 0.2909554,0.660734 0.6257298,0.81764 l 0.2040667,0.09565 1.0621336,0.0083 1.0621336,0.0083 V 23.002438 24 H 6.9917937 3.010551 Z"
     id="path2" />
  <path
     style="opacity:0.905;fill:#9333ea;stroke-width:1"
     d="m 16.009379,13.47714 v -2.504104 h -0.486738 -0.486738 l -0.03392,-0.372802 c -0.01866,-0.205041 -0.05898,-0.477207 -0.0896,-0.6048144 C 14.849871,9.7349242 14.690101,9.3042853 14.58841,9.1221968 l -0.06728,-0.1204761 3.663233,0.00888 3.663235,0.00888 0.239156,0.063322 c 0.840621,0.2225737 1.496902,0.8360862 1.771016,1.6556023 0.124795,0.373101 0.151899,0.784211 0.135067,2.048739 -0.01332,1.000485 -0.01667,1.052338 -0.08485,1.310945 -0.249828,0.947613 -0.981668,1.640481 -1.94235,1.838915 -0.186539,0.03853 -0.584207,0.04423 -3.085198,0.04423 h -2.871057 z m 5.691847,0.49657 c 0.104528,-0.04367 0.264835,-0.214804 0.287742,-0.307169 0.0086,-0.03453 0.01191,-0.582899 0.0074,-1.218589 l -0.0081,-1.1558 -0.07579,-0.09933 c -0.158776,-0.208095 -0.133542,-0.204731 -1.60534,-0.214052 l -1.315357,-0.0083 v 1.52064 1.52064 h 1.309227 c 1.035954,0 1.328217,-0.0079 1.400205,-0.03801 z"
     id="path3" />
  <path
     style="opacity:0.905;fill:#9333ea;stroke-width:1"
     d="M 8.0187573,6.9350783 C 7.0174265,6.7286721 6.2578313,5.9608122 6.0614689,4.9564932 6.0116623,4.7017517 6.0028452,2.3642888 6.0506724,2.0942647 6.2239474,1.1159825 6.9228416,0.3597488 7.9042487,0.08861519 L 8.1735053,0.01422759 14.757327,0.00585646 c 4.50372,-0.005726351 6.689783,0.00111654 6.919204,0.02165878 0.657185,0.05884403 1.095996,0.26427504 1.563837,0.73211653 0.336309,0.33630833 0.480734,0.56433503 0.617702,0.97526313 0.124462,0.3734083 0.151579,0.7856374 0.134766,2.0487389 -0.01332,1.0004857 -0.01667,1.0523386 -0.08485,1.3109452 -0.193665,0.7345818 -0.680065,1.3270321 -1.35113,1.6457194 -0.112658,0.053501 -0.293005,0.1256157 -0.400773,0.1602553 l -0.19594,0.062981 -6.87925,0.00462 c -5.6534668,0.0038 -6.911837,-0.0021 -7.0621337,-0.033077 z M 21.740635,4.9492319 c 0.08123,-0.039323 0.145131,-0.098743 0.191767,-0.178322 L 22.002342,4.6515624 22.00188,3.5004588 C 22.001425,2.3584184 22.000921,2.3484736 21.938004,2.2373847 21.902446,2.1746036 21.825398,2.0975549 21.762617,2.0619976 L 21.650645,1.998581 17.817116,1.9981182 13.983587,1.9976553 v 1.5052755 1.5052755 h 3.817612 3.817611 z"
     id="path4" />
</svg>
